<svg width="323" height="6" viewBox="0 0 323 6" fill="none" xmlns="http://www.w3.org/2000/svg">
<path d="M0.0159493 2.01394C2.15559 1.85085 4.29242 1.73982 6.49335 1.7504C6.99486 1.75271 6.9476 1.85945 7.15378 1.87255C7.53271 1.89725 8.16863 1.76912 8.25778 1.76693C8.81106 1.75387 8.59485 1.94864 8.66932 1.9545C9.4995 2.01792 9.26055 1.80392 10.0543 1.76656C11.0879 1.7179 12.4142 1.73164 13.6595 1.71982C14.0969 1.71608 13.9022 1.8769 14.8461 1.84799C15.5148 1.82944 17.566 1.60327 18.5105 1.7907C18.516 1.86778 18.3968 1.95469 18.3466 2.03473C19.7005 1.69498 20.1851 1.69414 22.1047 1.74653C22.4083 1.75496 22.6959 1.61092 23.2308 1.65354C23.7655 1.69652 23.7881 1.91395 24.8634 1.89761C25.2448 1.89133 25.4763 1.73171 26.0611 1.71599C27.7245 1.66926 30.8923 1.82898 32.2576 1.82185C34.9461 1.80639 36.4089 1.48695 38.7966 1.55936C38.9804 1.5648 38.5765 1.76687 38.9136 1.76685C39.2535 1.7672 39.6075 1.49991 39.6911 1.49232C40.5936 1.41023 42.5011 1.74511 43.0031 1.69726C44.2235 1.57532 43.0209 1.47006 44.7121 1.39582C46.3225 1.32257 48.5458 1.66061 50.1422 1.72043C51.992 1.79051 52.5885 1.22743 53.9815 1.79577C58.8738 1.71951 63.7857 1.65655 68.6835 1.5852C68.6696 1.71297 68.6534 1.84078 68.6367 1.96851C69.024 1.87796 69.4114 1.78671 69.7986 1.69601C69.7401 1.79205 69.6846 1.88808 69.6261 1.98297C71.4451 1.60425 73.0664 1.39378 75.1917 1.48154C75.2333 1.48322 75.1241 1.74747 75.1585 1.75402C75.6377 1.80093 76.1732 1.59404 76.5939 1.63904C77.6109 1.74608 79.3383 2.32265 78.5777 1.61185C80.9485 1.74532 83.7345 1.48251 85.994 1.6109C86.9717 1.66652 87.2646 2.1053 87.7325 2.12923C88.2 2.15284 87.9621 1.77445 88.1281 1.75909C89.1254 1.66979 90.7669 1.67598 90.9398 2.10522C91.1404 1.93303 91.3526 1.7583 91.5559 1.58423C91.4367 2.06151 94.5188 1.85222 95.3275 1.86017C95.4752 1.86172 95.4957 2.07385 95.6072 2.07134C96.8492 2.04028 97.1529 1.70494 98.2169 1.5882C98.5902 1.54707 98.0113 1.92731 98.9697 1.76023C99.0533 1.74552 99.0089 1.40583 100.154 1.4019C101.982 1.39631 105.478 1.2405 107.654 1.40268C107.832 1.4155 107.289 1.79803 108.105 1.70641C108.4 1.67379 108.259 1.40368 108.975 1.39827C111.75 1.37378 114.709 1.68002 117.539 1.40691C117.436 1.72017 116.428 2.07296 117.944 1.87322C118.186 1.8402 118.005 1.5611 118.114 1.55038C118.994 1.46661 119.757 1.66462 120.71 1.55403C120.991 1.52069 121.061 1.29959 121.412 1.24599C121.93 1.16615 122.159 1.48105 122.761 1.34514C123.702 1.13123 123.848 0.829139 125.015 1.41546C131.629 1.35984 138.213 1.17403 144.804 1.43201C146.71 1.25658 148.469 1.06043 150.455 0.99192C151.04 0.971972 151.152 1.38694 152.085 1.24868C152.294 1.2184 153.785 0.771174 154.002 1.61085C154.417 1.53819 154.68 1.53561 155.036 1.49073C154.766 1.36757 154.487 1.24309 154.228 1.11879C155.732 1.252 156.961 0.955259 158.293 0.814446C159.273 0.711381 158.577 1.07212 159.179 1.03573C159.78 1.00052 160.054 0.919324 160.806 1.35117C161.05 1.14529 161.26 1.08413 161.5 1.08419C161.84 1.08427 162.24 1.20785 162.879 1.21573C162.996 1.21694 163.672 1.02383 164.238 1.06255C164.644 1.09048 164.765 1.40117 165.411 1.35322C165.517 1.34596 166.882 0.96168 167.317 0.926921C167.994 0.87173 169.07 1.27035 169.201 1.27524C171.104 1.34633 171.837 0.955082 173.188 1.60148C173.461 1.21821 174.589 0.99526 175.5 1.03376C176.65 1.08268 178.958 1.86646 179.272 1.04198C180.604 1.41148 180.459 1.18436 182.039 1.18004C183.476 1.17567 187.282 1.4966 188.447 1.45361C189.612 1.41202 189.044 0.95707 189.507 0.897757C190.264 0.799347 189.855 1.13266 190.373 1.12927C191.838 1.11893 193.112 1.05866 194.51 0.918426C194.586 1.1519 194.667 1.38648 194.745 1.61979C194.817 1.54226 194.889 1.46467 194.961 1.3872C195.262 1.39035 195.599 1.38648 195.878 1.39429C193.527 0.364851 198.149 1.47774 199.536 1.50554C200.707 1.5293 202.654 1.05624 203.939 0.959417C204.251 0.935434 204.036 1.18203 204.1 1.1766C204.852 1.10893 204.967 0.940782 205.978 0.968475C206.513 0.983735 207.059 1.29417 207.58 1.30192C211.405 1.35733 215.097 1.06917 218.897 1.06002C219.543 1.05844 220.101 1.42478 220.644 1.43501C221.421 1.44965 221.912 1.15645 222.642 1.15644C223.369 1.15677 224.417 1.51337 224.91 1.46204C225.403 1.41229 224.559 1.06853 225.462 1.16696C225.877 1.21203 225.144 1.45979 225.657 1.47022C227.256 1.50131 229.513 1.20757 231.215 1.51439C231.14 1.44023 231.037 1.37322 230.945 1.30202C232.759 1.34288 234.361 1.52866 236.233 1.56454C236.888 1.57743 238.069 1.3737 238.712 1.37954C239.356 1.38524 239.649 1.61445 240.164 1.62373C240.376 1.6281 240.293 1.42462 240.435 1.42973C242.212 1.49648 243.187 1.8592 245.048 1.82854C251.866 1.71993 258.896 1.65123 265.82 1.59869C266.098 1.59655 266.285 1.36931 266.692 1.3403C267.318 1.29539 267.349 1.4967 267.433 1.50459C267.978 1.55435 267.756 1.36652 268.489 1.37501C270.102 1.39448 272.704 1.58347 274.312 1.58674C278.017 1.59543 281.132 1.47124 284.765 1.44687C285.027 1.44448 284.85 1.67568 285.304 1.68428C288.504 1.74663 289.182 1.54127 293.166 1.65913C297.15 1.7771 304.67 1.99983 309.334 2.0851C309.334 2.08551 309.334 2.08592 309.334 2.08632C310.802 1.783 312.702 1.90867 314.279 2.15611C305.185 2.80915 296.484 2.4771 286.771 2.42732C276.563 2.3861 265.68 3.25798 255.335 3.16087C254.363 3.14978 253.972 2.84183 253.153 2.90573C253.015 2.91672 253.373 3.15485 252.947 3.17943C247.097 3.5195 240.858 2.96262 235.113 3.12132C233.564 3.16612 233.321 3.45787 231.959 3.53648C232.199 3.39746 232.355 3.25259 232.564 3.11321C226.345 2.68011 220.118 2.86581 213.818 2.80039C213.534 2.79681 213.498 2.49237 213.2 2.4806C212.604 2.45586 212.033 2.79124 211.512 2.80262C210.832 2.81716 210.714 2.57313 210.087 2.5884C209.781 2.59625 209.873 2.8313 209.207 2.7911C209.152 2.78766 209.115 2.5407 208.673 2.57207C207.461 2.65868 204.984 2.86609 203.981 2.92876C202.699 3.00881 201.671 2.63079 201.186 2.60555C199.877 2.53799 199.904 2.92649 198.796 2.92661C190.905 2.92989 183.362 2.4747 175.285 2.4742C174.778 2.47405 172.901 2.92055 171.962 2.90272C171.647 2.89549 170.002 2.77716 169.755 2.76735C168.755 2.72984 167.891 2.4589 167.339 2.40197C166.269 2.29061 165.074 2.71368 164.492 2.75603C163.621 2.81983 162.175 2.78896 161.5 2.77165C161.382 2.76863 161.288 2.76602 161.224 2.7644C160.188 2.73779 160.53 2.2141 159.786 2.33634C159.566 2.37285 159.796 2.77431 159.022 2.77432C158.373 2.77296 158.111 2.47069 157.668 2.41633C157.225 2.36231 156.413 2.82973 156.136 2.818C154.693 2.75275 154.055 2.4468 152.483 2.43152C151.178 2.41985 145.147 2.63531 144.645 2.74455C142.4 3.23315 146.14 3.01401 146.351 3.03048C147.49 3.12553 147.324 3.31364 148.46 2.95466C149.477 4.06298 153.021 2.33653 153.93 3.65306C154.869 2.77596 155.657 3.21808 156.647 3.39481C158.014 3.63897 156.973 3.12723 157.97 3.12363C158.363 3.12267 159.502 3.52167 160.093 3.46606C160.624 3.41592 160.878 3.16332 161.5 3.10073C161.569 3.09373 161.644 3.08911 161.723 3.08741C163.135 3.05599 164.272 3.19884 165.459 3.56512C165.676 3.40307 165.879 3.24096 166.093 3.07895C166.913 3.25307 167.735 3.42602 168.554 3.59867C168.423 3.4573 168.292 3.31469 168.161 3.17329C168.401 3.15273 168.641 3.13334 168.881 3.11399C169.677 3.32661 170.438 3.5233 171.257 3.74271C173.483 2.92531 172.837 3.63253 174.074 3.73794C175.311 3.84321 176.027 3.37106 176.982 3.36837C178.269 3.36438 178.86 3.3055 180.158 3.33872C180.911 3.35777 182.187 3.81033 181.139 3.09277C183.488 3.03464 186.704 2.8363 188.804 3.12505C189.425 3.20914 188.598 3.43354 188.703 3.46141C189.23 3.59287 189.673 3.22945 190.216 3.28133C191.119 3.36775 192.877 3.64806 193.588 3.71319C194.61 3.80721 196.218 3.33946 196.382 3.30565C197.301 3.11638 197.547 3.50205 197.842 3.47509C199.522 3.31891 199.893 3.15869 200.422 3.96691C200.857 3.61549 202.679 3.02857 203.119 3.61382C203.131 3.0849 204.643 3.17354 205.574 3.04179C205.747 3.19405 205.922 3.34522 206.095 3.49828C208.037 2.55758 211.904 3.24146 214.459 3.3456C214.523 3.34775 214.637 2.96217 215.022 3.04901C215.046 3.05611 215.007 3.22921 215.265 3.25144C216.115 3.32414 219.357 3.74768 219.73 3.74954C221.104 3.76062 221.344 3.47788 222.18 3.45034C223.28 3.41368 223.439 3.66635 224.486 3.62791C224.976 3.61026 225.422 3.27876 226.194 3.32478C226.651 3.35152 226.696 3.60999 227.058 3.62997C228.345 3.70145 229.29 3.53843 230.432 3.86768C230.731 3.05564 231.276 3.65302 231.842 3.71168C234.138 3.95217 236.999 3.6053 238.969 3.6728C245.115 3.88259 250.565 4.31459 256.569 4.3633C257.544 4.37122 257.779 4.01167 258.801 4.02828C259.261 4.03609 259.735 4.28912 260.487 4.28648C261.091 4.28508 261.957 4.14975 262.712 4.14529C262.913 4.14386 262.931 4.37897 263.226 4.37808C265.466 4.37107 267.653 4.18688 269.915 4.06065C270.754 4.01402 271.272 4.30421 271.13 3.79287C271.451 3.91675 271.762 4.02361 272.063 4.14422C273.217 3.81521 274.158 4.14037 275.719 4.04565C275.887 4.03366 277.065 3.68678 277.733 3.9257C277.781 3.75199 277.677 3.60535 277.696 3.4481C278.357 3.37996 279.371 3.57474 279.817 3.59207C280.262 3.60962 280.56 3.38812 280.694 3.38569C281.204 3.37855 281.085 3.66672 281.124 3.67134C283.5 3.9315 283.25 3.77436 284.685 3.3507C285.045 3.24603 287.484 3.53681 287.977 3.21451C288 3.34492 287.864 3.4603 287.825 3.58531C288.557 3.61474 289.296 3.64425 290.031 3.6721C289.875 3.55039 289.688 3.42806 289.546 3.30434C291.048 3.40507 292.296 3.11582 293.525 3.12493C294.227 3.12988 294.141 3.38935 294.553 3.33123C294.634 3.31982 294.498 3.14541 294.737 3.13107C296.69 3.01642 297.546 3.19759 299.502 3.22395C300.418 3.23542 301.22 2.94205 302.535 3.13204C302.655 3.15148 303.945 3.39667 304.742 3.03777C304.996 3.15014 305.219 3.20829 305.409 3.30142C307.022 2.77469 306.576 3.29192 308.758 3.3937C309.887 3.44675 313.684 3.33676 314.912 3.28407C315.644 3.25079 315.631 3.07509 315.761 3.06783C316.541 3.02694 316.542 3.19535 317.263 3.16542C317.985 3.13489 318.896 2.95077 319.637 2.96874C320.205 2.98176 319.758 3.1781 320.596 3.10822C320.77 3.09343 320.274 2.92902 321.158 2.99359C321.297 3.00468 322.71 3.17576 323 3.20985C322.256 3.30992 320.1 3.46075 319.289 3.51278C305.327 4.40923 277.203 5.21432 262.295 5.19262C260.91 5.19717 260.005 4.87868 259.102 4.8593C258.199 4.8405 258.963 5.1369 258.143 5.12191C257.324 5.10625 256.728 4.8956 255.961 4.88463C250.796 4.81175 245.592 4.71282 240.468 4.68604C239.139 4.67899 238.077 4.96232 236.868 4.97281C236.397 4.97663 236.383 4.61867 236.049 4.62398C232.446 4.67464 229.114 5.05134 225.531 5.03419C224.043 5.02647 222.436 4.71966 220.962 4.69698C219.748 4.67761 218.488 4.90356 217.396 4.91447C216.803 4.92124 216.491 4.63072 216.276 4.6086C215.53 4.5355 215.791 4.89192 215.409 4.89394C214.356 4.8986 213.832 4.46709 212.846 4.50466C212.459 4.51977 212.509 4.7971 211.947 4.84314C211.233 4.9011 211.497 4.64313 210.988 4.63598C210.957 4.63498 211.057 4.83376 210.787 4.84306C209.048 4.90328 206.878 5.07196 205.201 5.06591C201.732 5.05484 198.308 4.67364 195.076 4.60372C194.26 4.58699 194.476 4.85521 194.217 4.86895C192.969 4.93411 192.523 4.61287 191.217 4.73202C190.999 4.75144 190.124 5.12828 189.289 5.03578C188.837 4.98593 188.325 4.75306 187.941 4.69913C187.556 4.64523 187.495 4.99058 187.033 4.99201C186.191 4.99529 186.436 4.75508 185.232 4.8005C184.748 4.81806 183.129 5.15011 181.881 5.12784C179.841 5.09164 177.314 4.794 174.909 4.79174C174.085 4.7902 173.025 5.15082 171.746 5.15588C170.183 5.16248 167.304 5.08271 165.702 5.07841C164.882 5.07633 164.823 4.69868 164.726 4.68298C164.099 4.57808 164.352 4.99997 163.932 4.98342C163.355 4.96058 162.817 4.64935 162.293 4.62881C161.959 4.61567 161.906 4.92671 161.834 4.92913C161.722 4.93343 161.611 4.93749 161.5 4.94133C158.956 5.02964 156.674 5.00353 154.122 5.03415C139.837 5.20615 125.416 5.54576 111.159 5.28704C109.964 5.26616 109.919 4.8989 108.869 4.9512C107.818 5.00337 106.804 5.78151 105.94 4.90955C105.912 5.08418 105.915 5.20881 105.887 5.3677C103.717 5.10736 101.546 5.34688 99.4231 5.36031C97.852 5.37114 96.4586 5.33258 95.0071 5.30234C93.7206 5.27397 93.8317 4.98343 92.7178 5.35499C87.1817 5.07155 81.5861 5.07278 76.0974 4.65577C74.8101 5.22391 73.5763 4.84449 71.7959 4.74548C71.5761 4.73279 71.8119 4.9421 71.1601 4.91779C70.3415 4.88742 69.9179 4.56999 68.5394 4.57557C68.1744 4.57878 65.4711 4.89177 64.4708 4.70751C63.4706 4.52493 62.0218 4.41164 60.9826 4.242C61.1303 4.37061 61.3173 4.4944 61.4816 4.62209C60.9634 4.63887 60.4424 4.65457 59.9242 4.67083C59.849 4.51791 59.7736 4.36509 59.7012 4.21173C59.4003 4.35396 59.0992 4.49357 58.7955 4.63585C58.1409 3.85439 58.8121 4.11497 57.3552 4.29687C56.6252 4.3868 56.0457 4.24819 55.2962 4.31851C55.0262 4.34435 54.8534 4.56509 54.5557 4.59002C53.8259 4.65013 54.2513 4.35026 53.8004 4.3475C53.3463 4.3464 52.6943 4.6704 51.8807 4.51399C52.7301 3.93413 50.2752 4.10752 50.1582 4.55432C49.866 4.55168 49.621 4.53019 49.2982 4.53902C49.5963 3.41218 48.0659 4.2032 47.4586 4.34638C46.8516 4.49159 46.8761 4.19391 46.7341 4.20427C46.3248 4.23255 46.6229 4.35875 46.3361 4.3598C44.4359 4.36261 42.6468 4.166 40.7717 4.13244C40.502 4.12746 40.7412 4.28953 40.4267 4.27032C40.1119 4.25089 39.8102 4.08991 39.3449 4.09634C39.22 4.09788 39.1808 4.23581 38.9863 4.23369C34.9102 4.1799 31.0399 4.0248 26.8829 3.96488C26.5068 3.95967 26.2115 4.17176 25.4844 4.1541C24.7574 4.13611 23.6542 3.93255 22.7515 3.90887C22.5119 3.90238 22.4469 4.07305 22.1293 4.06416C21.0485 4.03369 20.1174 3.88576 18.9947 3.85187C17.0976 3.79539 15.1113 3.86659 13.1864 3.75389C12.8214 3.73317 12.8798 3.60825 12.3534 3.56862C11.4452 3.50079 11.787 3.68349 11.6031 3.70559C11.0015 3.77576 10.8124 3.538 10.2305 3.59319C10.1415 3.60157 10.2684 3.74113 10.1886 3.74239C8.9515 3.74988 8.88655 3.43462 7.57148 3.59013C6.40201 3.40245 8.35538 3.35754 8.55596 3.26075C9.04587 3.02671 7.7508 2.75196 6.98744 2.6725C6.33006 2.60276 6.3349 2.74344 6.07319 2.74448C4.68858 2.75182 2.62664 2.78465 1.57338 2.72911C0.935351 2.6965 2.08542 2.63576 1.75944 2.5955C1.43635 2.55619 1.22718 2.6534 0.895703 2.55205C0.564148 2.44972 -0.112215 2.15884 0.0159493 2.01394ZM116.338 2.19597C114.215 3.44314 108.585 3.30035 105.562 3.18521C103.054 3.0854 100.892 2.16881 101.411 3.50104C104.121 3.51458 106.314 3.38195 109.181 3.42663C109.479 3.43135 111.257 3.56052 111.875 3.58436C112.223 3.59741 112.235 3.82444 112.708 3.82317C112.811 3.82233 113.383 3.52609 113.592 3.53425C114.307 3.56089 116.436 4.02372 116.734 4.01164C117.558 3.97437 117.242 3.61654 117.597 3.55215C118.793 3.33845 118.924 3.87668 120.108 3.70367C120.32 3.67285 121.022 3.20273 121.9 3.26459C122.257 3.29035 122.864 3.53481 123.137 3.52349C124.625 3.46228 126.286 3.13797 127.648 3.19222C128.765 3.23734 128.464 3.60591 129.055 3.65603C129.646 3.70501 130.359 3.27706 130.763 3.25223C131.409 3.21345 132.195 3.45782 132.395 3.45447C136.346 3.38505 139.859 3.10051 143.671 2.99698C141.083 2.8253 138.497 2.66879 135.926 2.49413C134.466 2.88062 135.192 2.51846 134.231 2.3992C133.471 2.30493 133.287 2.95649 132.287 2.88438C132.288 2.88438 132.289 2.88438 132.289 2.88438C131.774 2.84626 130.657 2.39743 129.559 2.58617C129.52 2.59335 129.422 2.9296 128.6 2.94139C126.753 2.96781 123.923 3.13844 121.845 3.06685C121.234 3.0458 121.359 2.69781 120.637 2.65536C120.111 2.62481 119.501 2.94575 118.677 2.8742C117.643 2.78261 117.147 2.23574 116.437 2.99711C116.378 2.72548 116.408 2.46055 116.338 2.19597ZM59.244 2.88797C59.0989 2.86243 57.1544 2.20454 57.731 2.91055C60.3444 3.21857 63.1699 3.06701 65.9198 3.24995C64.9809 2.5133 63.3924 2.80926 61.4644 2.86158C61.4636 2.86158 61.4627 2.86158 61.4619 2.86158C61.3708 2.86419 61.7514 2.67624 61.234 2.71111C60.9832 2.72868 60.0214 3.01417 59.244 2.88797Z" fill="#151B35"/>
</svg>
