<svg width="589" height="6" viewBox="0 0 589 6" fill="none" xmlns="http://www.w3.org/2000/svg">
<path d="M0.0290842 2.01388C3.93079 1.85079 7.82735 1.73976 11.8408 1.75034C12.7553 1.75264 12.6692 1.85939 13.0451 1.87249C13.7361 1.89719 14.8957 1.76906 15.0583 1.76687C16.0672 1.75381 15.673 1.94857 15.8088 1.95444C17.3226 2.01786 16.8869 1.80386 18.3342 1.7665C20.219 1.71784 22.6376 1.73158 24.9085 1.71975C25.7061 1.71602 25.351 1.87684 27.0723 1.84792C28.2916 1.82938 32.0321 1.60321 33.7544 1.79063C33.7645 1.86772 33.547 1.95463 33.4556 2.03467C35.9245 1.69492 36.8082 1.69408 40.3085 1.74647C40.8623 1.7549 41.3866 1.61085 42.3621 1.65348C43.3372 1.69646 43.3784 1.91389 45.3392 1.89755C46.0347 1.89127 46.4567 1.73165 47.5232 1.71593C50.5564 1.66919 56.3331 1.82891 58.8226 1.82179C63.7252 1.80633 66.3927 1.48689 70.7467 1.5593C71.082 1.56473 70.3454 1.76681 70.9601 1.76678C71.58 1.76713 72.2255 1.49985 72.3779 1.49225C74.0237 1.41017 77.502 1.74505 78.4174 1.69719C80.6428 1.57525 78.4499 1.46999 81.5338 1.39575C84.4704 1.32251 88.5248 1.66054 91.4357 1.72037C94.8089 1.79045 95.8967 1.22736 98.4369 1.7957C107.358 1.71945 116.315 1.65649 125.246 1.58513C125.221 1.71291 125.192 1.84071 125.161 1.96844C125.867 1.87789 126.574 1.78664 127.28 1.69594C127.173 1.79198 127.072 1.88801 126.965 1.9829C130.282 1.60418 133.239 1.39372 137.114 1.48147C137.19 1.48316 136.991 1.7474 137.054 1.75395C137.928 1.80087 138.904 1.59397 139.671 1.63898C141.526 1.74601 144.676 2.32259 143.289 1.61178C147.612 1.74525 152.692 1.48244 156.813 1.61083C158.595 1.66646 159.13 2.10523 159.983 2.12916C160.835 2.15278 160.401 1.77438 160.704 1.75903C162.523 1.66972 165.516 1.67591 165.831 2.10515C166.197 1.93296 166.584 1.75823 166.955 1.58416C166.737 2.06144 172.358 1.85215 173.832 1.8601C174.102 1.86165 174.139 2.07379 174.343 2.07127C176.607 2.04021 177.161 1.70487 179.101 1.58813C179.782 1.547 178.726 1.92724 180.474 1.76016C180.626 1.74545 180.546 1.40577 182.633 1.40183C185.966 1.39624 192.342 1.24043 196.31 1.40261C196.635 1.41543 195.645 1.79796 197.132 1.70634C197.671 1.67372 197.413 1.40361 198.719 1.3982C203.779 1.37371 209.175 1.67995 214.337 1.40684C214.148 1.7201 212.31 2.07289 215.074 1.87315C215.515 1.84013 215.186 1.56103 215.384 1.55031C216.989 1.46654 218.38 1.66455 220.118 1.55396C220.631 1.52062 220.758 1.29952 221.398 1.24592C222.343 1.16608 222.761 1.48098 223.859 1.34507C225.575 1.13116 225.84 0.829069 227.968 1.41539C240.029 1.35977 252.035 1.17395 264.055 1.43194C267.53 1.25651 270.737 1.06036 274.359 0.991848C275.426 0.9719 275.63 1.38687 277.332 1.24861C277.713 1.21833 280.431 0.771102 280.828 1.61078C281.584 1.53812 282.063 1.53554 282.713 1.49066C282.22 1.3675 281.712 1.24302 281.239 1.11872C283.983 1.25193 286.223 0.955187 288.651 0.814374C290.439 0.711308 289.17 1.07205 290.267 1.03565C291.364 1.00045 291.863 0.919251 293.235 1.3511C293.68 1.14522 294.063 1.08406 294.5 1.08411C295.12 1.0842 295.849 1.20778 297.014 1.21566C297.228 1.21687 298.461 1.02375 299.492 1.06248C300.234 1.09041 300.454 1.40109 301.631 1.35315C301.825 1.34588 304.315 0.961607 305.107 0.926847C306.342 0.871657 308.304 1.27028 308.543 1.27516C312.012 1.34625 313.35 0.955008 315.814 1.60141C316.311 1.21814 318.368 0.995186 320.029 1.03369C322.127 1.08261 326.334 1.86638 326.909 1.04191C329.337 1.4114 329.073 1.18429 331.953 1.17996C334.574 1.1756 341.514 1.49652 343.639 1.45354C345.762 1.41195 344.728 0.956995 345.571 0.897682C346.951 0.799272 346.206 1.13258 347.151 1.12919C349.823 1.11886 352.145 1.05858 354.695 0.918351C354.833 1.15183 354.98 1.3864 355.122 1.61971C355.254 1.54218 355.386 1.46459 355.518 1.38712C356.067 1.39027 356.682 1.3864 357.189 1.39422C352.902 0.364776 361.33 1.47767 363.86 1.50546C365.994 1.52923 369.546 1.05616 371.888 0.959341C372.457 0.935358 372.066 1.18195 372.183 1.17653C373.555 1.10885 373.763 0.940706 375.607 0.968399C376.582 0.983659 377.578 1.2941 378.528 1.30185C385.503 1.35725 392.235 1.06909 399.165 1.05995C400.344 1.05836 401.361 1.4247 402.351 1.43494C403.768 1.44957 404.663 1.15638 405.993 1.15637C407.319 1.15669 409.231 1.51329 410.13 1.46196C411.029 1.41221 409.49 1.06845 411.137 1.16688C411.893 1.21196 410.557 1.45971 411.492 1.47014C414.408 1.50124 418.523 1.2075 421.627 1.51431C421.49 1.44015 421.303 1.37314 421.135 1.30194C424.442 1.3428 427.364 1.52858 430.779 1.56446C431.972 1.57735 434.126 1.37362 435.299 1.37946C436.473 1.38516 437.006 1.61437 437.946 1.62365C438.332 1.62802 438.181 1.42455 438.44 1.42966C441.681 1.49641 443.459 1.85912 446.853 1.82846C459.285 1.71985 472.105 1.65115 484.73 1.59861C485.238 1.59647 485.579 1.36923 486.321 1.34022C487.463 1.29531 487.519 1.49661 487.671 1.50451C488.667 1.55427 488.261 1.36644 489.597 1.37493C492.539 1.3944 497.284 1.58339 500.215 1.58666C506.973 1.59535 512.653 1.47115 519.278 1.44679C519.755 1.4444 519.432 1.67559 520.26 1.6842C526.096 1.74655 527.332 1.54119 534.597 1.65905C541.862 1.77701 555.575 1.99974 564.08 2.08502C564.08 2.08543 564.08 2.08583 564.08 2.08624C566.757 1.78292 570.221 1.90858 573.097 2.15602C556.514 2.80906 540.647 2.47702 522.936 2.42724C504.32 2.38602 484.476 3.2579 465.612 3.16079C463.838 3.1497 463.126 2.84175 461.632 2.90565C461.38 2.91664 462.034 3.15477 461.257 3.17935C450.588 3.51942 439.212 2.96254 428.736 3.12124C425.911 3.16605 425.468 3.45779 422.984 3.5364C423.421 3.39738 423.707 3.25252 424.087 3.11314C412.747 2.68004 401.391 2.86573 389.904 2.80031C389.386 2.79674 389.319 2.4923 388.776 2.48053C387.689 2.45578 386.647 2.79116 385.698 2.80255C384.458 2.81708 384.243 2.57306 383.1 2.58832C382.542 2.59617 382.709 2.83122 381.496 2.79103C381.394 2.78758 381.328 2.54062 380.521 2.572C378.311 2.65861 373.794 2.86601 371.965 2.92869C369.628 3.00874 367.753 2.63071 366.869 2.60548C364.481 2.53791 364.531 2.92642 362.51 2.92653C348.122 2.92982 334.367 2.47463 319.638 2.47412C318.712 2.47397 315.29 2.92047 313.578 2.90265C313.004 2.89542 310.003 2.77709 309.554 2.76727C307.73 2.72976 306.154 2.45882 305.148 2.40189C303.197 2.29053 301.017 2.71361 299.955 2.75596C298.368 2.81975 295.732 2.78888 294.5 2.77158C294.285 2.76856 294.113 2.76595 293.997 2.76433C292.107 2.73772 292.731 2.21403 291.375 2.33626C290.974 2.37278 291.394 2.77423 289.982 2.77425C288.798 2.77289 288.32 2.47062 287.512 2.41626C286.705 2.36224 285.223 2.82966 284.719 2.81792C282.088 2.75268 280.923 2.44673 278.057 2.43145C275.678 2.41978 264.68 2.63524 263.765 2.74448C259.67 3.23308 266.49 3.01393 266.875 3.03041C268.953 3.12546 268.649 3.31357 270.721 2.95459C272.576 4.0629 279.039 2.33646 280.695 3.65298C282.407 2.77588 283.846 3.21801 285.65 3.39474C288.143 3.6389 286.244 3.12716 288.063 3.12356C288.78 3.1226 290.857 3.5216 291.934 3.46599C292.902 3.41584 293.367 3.16325 294.5 3.10065C294.627 3.09366 294.762 3.08904 294.907 3.08734C297.482 3.05592 299.555 3.19877 301.719 3.56504C302.115 3.40299 302.485 3.24088 302.876 3.07887C304.37 3.253 305.87 3.42595 307.363 3.5986C307.124 3.45723 306.885 3.31462 306.646 3.17321C307.083 3.15265 307.522 3.13326 307.959 3.11392C309.412 3.32654 310.799 3.52323 312.293 3.74264C316.351 2.92523 315.173 3.63246 317.429 3.73787C319.684 3.84314 320.99 3.37098 322.732 3.3683C325.079 3.36431 326.157 3.30542 328.524 3.33864C329.896 3.35769 332.223 3.81026 330.313 3.0927C334.596 3.03457 340.459 2.83623 344.29 3.12498C345.421 3.20906 343.913 3.43346 344.106 3.46134C345.066 3.59279 345.875 3.22938 346.865 3.28125C348.511 3.36768 351.717 3.64798 353.013 3.71311C354.877 3.80714 357.809 3.33939 358.108 3.30558C359.784 3.1163 360.233 3.50198 360.771 3.47502C363.835 3.31884 364.511 3.15862 365.476 3.96683C366.269 3.61541 369.591 3.0285 370.394 3.61375C370.415 3.08483 373.173 3.17346 374.87 3.04171C375.185 3.19398 375.505 3.34514 375.82 3.4982C379.361 2.5575 386.413 3.24138 391.072 3.34552C391.189 3.34768 391.398 2.96209 392.099 3.04893C392.143 3.05604 392.071 3.22914 392.542 3.25137C394.091 3.32406 400.004 3.7476 400.684 3.74946C403.189 3.76054 403.627 3.4778 405.151 3.45026C407.158 3.4136 407.447 3.66627 409.357 3.62784C410.251 3.61019 411.065 3.27868 412.471 3.3247C413.304 3.35144 413.387 3.60991 414.046 3.6299C416.393 3.70137 418.117 3.53835 420.2 3.8676C420.744 3.05556 421.74 3.65294 422.771 3.7116C426.957 3.9521 432.175 3.60522 435.767 3.67272C446.974 3.88251 456.912 4.31451 467.861 4.36322C469.639 4.37114 470.067 4.01159 471.932 4.0282C472.77 4.03601 473.634 4.28904 475.006 4.2864C476.108 4.285 477.687 4.14967 479.064 4.14521C479.429 4.14378 479.462 4.37889 480 4.378C484.085 4.37099 488.074 4.1868 492.199 4.06057C493.728 4.01394 494.673 4.30413 494.414 3.79279C494.998 3.91667 495.566 4.02353 496.115 4.14414C498.218 3.81512 499.936 4.14029 502.781 4.04557C503.088 4.03358 505.236 3.6867 506.455 3.92562C506.541 3.75191 506.352 3.60526 506.388 3.44802C507.592 3.37988 509.441 3.57466 510.254 3.59199C511.066 3.60953 511.61 3.38804 511.854 3.38561C512.784 3.37847 512.567 3.66664 512.638 3.67126C516.971 3.93141 516.515 3.77427 519.132 3.35062C519.787 3.24595 524.236 3.53673 525.135 3.21443C525.176 3.34484 524.928 3.46022 524.857 3.58523C526.193 3.61466 527.539 3.64417 528.881 3.67202C528.596 3.55031 528.255 3.42798 527.996 3.30426C530.734 3.40499 533.01 3.11573 535.251 3.12485C536.531 3.1298 536.375 3.38927 537.127 3.33115C537.274 3.31974 537.025 3.14533 537.462 3.13099C541.023 3.01634 542.584 3.19751 546.15 3.22387C547.821 3.23534 549.284 2.94197 551.682 3.13195C551.901 3.15139 554.253 3.39658 555.706 3.03769C556.168 3.15006 556.576 3.20821 556.922 3.30134C559.863 2.77461 559.05 3.29183 563.029 3.39362C565.087 3.44667 572.011 3.33668 574.252 3.28399C575.586 3.25071 575.562 3.07501 575.8 3.06775C577.222 3.02686 577.223 3.19526 578.539 3.16533C579.855 3.1348 581.517 2.95069 582.868 2.96866C583.904 2.98168 583.087 3.17802 584.616 3.10814C584.933 3.09335 584.028 2.92893 585.641 2.99351C585.895 3.0046 588.472 3.17567 589 3.20977C587.643 3.30983 583.711 3.46066 582.232 3.5127C556.773 4.40915 505.488 5.21424 478.302 5.19254C475.777 5.19709 474.126 4.8786 472.48 4.85922C470.834 4.84042 472.226 5.13682 470.732 5.12183C469.238 5.10617 468.15 4.89552 466.753 4.88455C457.334 4.81167 447.844 4.71275 438.501 4.68596C436.078 4.67891 434.141 4.96224 431.936 4.97273C431.078 4.97655 431.051 4.61859 430.442 4.62391C423.873 4.67456 417.796 5.05126 411.262 5.03411C408.55 5.02639 405.618 4.71959 402.931 4.6969C400.716 4.67753 398.42 4.90348 396.429 4.91439C395.348 4.92117 394.777 4.63064 394.386 4.60852C393.025 4.53543 393.501 4.89184 392.804 4.89387C390.884 4.89852 389.929 4.46701 388.131 4.50459C387.425 4.5197 387.516 4.79703 386.491 4.84306C385.19 4.90102 385.671 4.64305 384.743 4.6359C384.687 4.6349 384.869 4.83369 384.376 4.84298C381.206 4.9032 377.248 5.07189 374.189 5.06583C367.864 5.05477 361.62 4.67357 355.727 4.60364C354.238 4.58692 354.633 4.85513 354.161 4.86887C351.885 4.93404 351.072 4.6128 348.69 4.73195C348.293 4.75137 346.697 5.1282 345.173 5.03571C344.35 4.98586 343.416 4.75298 342.715 4.69906C342.014 4.64515 341.902 4.99051 341.059 4.99194C339.525 4.99521 339.971 4.75501 337.777 4.80042C336.893 4.81799 333.941 5.15004 331.665 5.12777C327.946 5.09157 323.337 4.79392 318.952 4.79167C317.449 4.79013 315.517 5.15074 313.185 5.15581C310.335 5.1624 305.083 5.08264 302.162 5.07833C300.668 5.07626 300.56 4.6986 300.382 4.68291C299.24 4.57801 299.701 4.99989 298.935 4.98335C297.884 4.9605 296.902 4.64928 295.947 4.62874C295.338 4.6156 295.241 4.92664 295.109 4.92906C294.905 4.93335 294.702 4.93742 294.5 4.94126C289.86 5.02957 285.7 5.00346 281.046 5.03408C254.997 5.20608 228.7 5.54569 202.702 5.28697C200.523 5.26609 200.441 4.89883 198.525 4.95113C196.61 5.0033 194.76 5.78144 193.185 4.90949C193.134 5.08412 193.139 5.20874 193.088 5.36763C189.13 5.10729 185.172 5.34681 181.301 5.36024C178.436 5.37107 175.895 5.33251 173.248 5.30227C170.902 5.27391 171.105 4.98336 169.074 5.35492C158.978 5.07148 148.775 5.07271 138.766 4.6557C136.419 5.22385 134.169 4.84443 130.922 4.74542C130.521 4.73272 130.951 4.94203 129.763 4.91772C128.27 4.88736 127.497 4.56993 124.984 4.5755C124.318 4.57871 119.388 4.89171 117.564 4.70744C115.74 4.52486 113.099 4.41157 111.204 4.24194C111.473 4.37054 111.814 4.49433 112.114 4.62203C111.169 4.63881 110.219 4.6545 109.274 4.67076C109.136 4.51785 108.999 4.36502 108.867 4.21166C108.318 4.35389 107.769 4.4935 107.215 4.63579C106.022 3.85432 107.246 4.1149 104.589 4.29681C103.258 4.38674 102.201 4.24813 100.834 4.31844C100.342 4.34429 100.027 4.56503 99.484 4.58996C98.1531 4.65007 98.9288 4.35019 98.1067 4.34743C97.2785 4.34634 96.0896 4.67033 94.606 4.51392C96.1549 3.93406 91.6783 4.10746 91.4649 4.55426C90.932 4.55162 90.4853 4.53012 89.8966 4.53896C90.4403 3.41212 87.6497 4.20313 86.5421 4.34631C85.4352 4.49152 85.48 4.19384 85.2209 4.2042C84.4746 4.23249 85.0181 4.35868 84.4952 4.35974C81.0302 4.36255 77.7677 4.16594 74.3484 4.13237C73.8565 4.1274 74.2927 4.28947 73.7193 4.27026C73.1451 4.25082 72.595 4.08984 71.7465 4.09628C71.5188 4.09782 71.4473 4.23575 71.0927 4.23363C63.6597 4.17984 56.6021 4.02473 49.0218 3.96482C48.336 3.9596 47.7975 4.1717 46.4716 4.15404C45.1458 4.13605 43.1341 3.93249 41.4881 3.90881C41.0512 3.90231 40.9326 4.07299 40.3534 4.0641C38.3825 4.03363 36.6847 3.8857 34.6374 3.85181C31.178 3.79533 27.5559 3.86652 24.0457 3.75382C23.3803 3.73311 23.4866 3.60819 22.5269 3.56856C20.8706 3.50072 21.4939 3.68343 21.1585 3.70553C20.0615 3.7757 19.7168 3.53794 18.6555 3.59313C18.4933 3.60151 18.7247 3.74107 18.5791 3.74233C16.3233 3.74982 16.2049 3.43455 13.8068 3.59007C11.6742 3.40239 15.2363 3.35747 15.6021 3.26069C16.4954 3.02665 14.1338 2.7519 12.7418 2.67244C11.543 2.6027 11.5519 2.74338 11.0746 2.74442C8.54976 2.75176 4.78975 2.78459 2.86911 2.72905C1.70564 2.69644 3.80283 2.6357 3.20839 2.59543C2.61922 2.55613 2.2378 2.65334 1.63334 2.55199C1.02874 2.44966 -0.204626 2.15878 0.0290842 2.01388ZM212.146 2.1959C208.274 3.44307 198.007 3.30028 192.495 3.18514C187.922 3.08534 183.98 2.16874 184.925 3.50097C189.868 3.51451 193.866 3.38188 199.094 3.42656C199.638 3.43128 202.88 3.56045 204.008 3.58429C204.643 3.59734 204.663 3.82437 205.527 3.8231C205.715 3.82226 206.757 3.52602 207.138 3.53418C208.443 3.56082 212.325 4.02365 212.867 4.01157C214.37 3.9743 213.793 3.61647 214.442 3.55208C216.622 3.33838 216.862 3.87661 219.021 3.7036C219.407 3.67278 220.688 3.20266 222.288 3.26452C222.939 3.29028 224.046 3.53474 224.544 3.52342C227.257 3.46221 230.285 3.1379 232.77 3.19215C234.806 3.23727 234.259 3.60584 235.336 3.65596C236.413 3.70494 237.713 3.27699 238.45 3.25216C239.628 3.21338 241.061 3.45775 241.427 3.4544C248.631 3.38498 255.038 3.10044 261.988 2.99691C257.268 2.82523 252.554 2.66872 247.864 2.49406C245.202 2.88055 246.527 2.51839 244.775 2.39913C243.388 2.30486 243.052 2.95642 241.229 2.88431C241.231 2.88431 241.232 2.88431 241.234 2.88431C240.294 2.84619 238.256 2.39736 236.255 2.5861C236.184 2.59328 236.005 2.92953 234.507 2.94132C231.138 2.96774 225.977 3.13837 222.187 3.06678C221.074 3.04573 221.301 2.69774 219.985 2.65529C219.025 2.62474 217.913 2.94568 216.41 2.87413C214.526 2.78254 213.621 2.23567 212.326 2.99704C212.219 2.72541 212.273 2.46048 212.146 2.1959ZM108.033 2.8879C107.769 2.86237 104.223 2.20448 105.274 2.91049C110.04 3.2185 115.192 3.06695 120.207 3.24988C118.495 2.51323 115.598 2.80919 112.082 2.86151C112.081 2.86151 112.079 2.86152 112.078 2.86152C111.912 2.86412 112.605 2.67617 111.662 2.71104C111.205 2.72862 109.451 3.01411 108.033 2.8879Z" fill="#A96137"/>
</svg>
