<svg width="42" height="42" viewBox="0 0 42 42" fill="none" xmlns="http://www.w3.org/2000/svg">
<path d="M25.4 10.6001C25.0335 10.9739 24.8282 11.4766 24.8282 12.0001C24.8282 12.5236 25.0335 13.0262 25.4 13.4001L28.6 16.6001C28.9738 16.9665 29.4764 17.1718 30 17.1718C30.5235 17.1718 31.0261 16.9665 31.4 16.6001L38.94 9.06008C39.9456 11.2825 40.2501 13.7586 39.8129 16.1584C39.3756 18.5582 38.2174 20.7678 36.4925 22.4926C34.7676 24.2175 32.5581 25.3757 30.1582 25.813C27.7584 26.2503 25.2823 25.9458 23.06 24.9401L9.23995 38.7601C8.44431 39.5557 7.36517 40.0027 6.23995 40.0027C5.11474 40.0027 4.0356 39.5557 3.23995 38.7601C2.44431 37.9644 1.99731 36.8853 1.99731 35.7601C1.99731 34.6349 2.44431 33.5557 3.23995 32.7601L17.06 18.9401C16.0543 16.7177 15.7498 14.2416 16.187 11.8418C16.6243 9.44197 17.7825 7.23239 19.5074 5.50752C21.2323 3.78266 23.4418 2.62442 25.8417 2.18717C28.2415 1.74991 30.7176 2.05441 32.94 3.06008L25.4 10.6001Z" stroke="#151B35" stroke-width="4" stroke-linecap="round" stroke-linejoin="round"/>
</svg>
