<svg width="44" height="44" viewBox="0 0 44 44" fill="none" xmlns="http://www.w3.org/2000/svg">
<path d="M38 2.00012H6C3.79086 2.00012 2 3.79098 2 6.00012V14.0001C2 16.2093 3.79086 18.0001 6 18.0001H38C40.2091 18.0001 42 16.2093 42 14.0001V6.00012C42 3.79098 40.2091 2.00012 38 2.00012Z" stroke="#151B35" stroke-width="4" stroke-linecap="round" stroke-linejoin="round"/>
<path d="M38 26.0001H6C3.79086 26.0001 2 27.791 2 30.0001V38.0001C2 40.2093 3.79086 42.0001 6 42.0001H38C40.2091 42.0001 42 40.2093 42 38.0001V30.0001C42 27.791 40.2091 26.0001 38 26.0001Z" stroke="#151B35" stroke-width="4" stroke-linecap="round" stroke-linejoin="round"/>
</svg>
